<svg><clipPath id="dog"><path d="M0 0h1024v1024H0z"/></clipPath><g clip-path="url(#a)" vectornator:layerName="Layer 2"  stroke="#000" stroke-linecap="butt" stroke-width="28.82"><path d="M140.71 647.43c-25.51 12.76-12.15 70.34-6.77 90.07 16.75 61.42 110.76 161.15 180.81 114.45 27.22-18.15 27.34-59.3 19.64-86.69-14.88-52.92-75-130.29-132.05-140.85-47.06-8.72-88.11 31.1-75.17 78.55 5.09 18.67 11.64 36.96 18.96 54.86M201.66 392.8c-19.48 19.48-10.74 54.45-2.7 76.53 18.66 51.33 104.42 170.58 168.61 111.73 23.56-21.59 18.36-63.88 7.45-90.06-21.68-52.05-63.5-109.91-123.25-119.87-53.6-8.93-74.3 56.07-45.37 91.42M393.3 196.41c0-2.27-4.03 4.94-5.4 6.77-5.06 6.74-7.75 15.56-9.49 23.7-4.99 23.28-9.97 49.78-6.1 73.82 7.55 46.75 90.55 138.23 144.93 116.48 85.04-34.02 20.17-198.3-44.7-224.83-33.01-13.5-87.79-13.65-96.84 29.8-3.47 16.65 4.06 32.98 4.06 49.43M702.8 222.15c-21.08 10.53-21.92 27.74-25.74 48.75-11.3 62.18 32.98 114.9 77.88 153.05 22.56 19.19 57.5 38.21 85.32 16.93 75.1-57.42 7.86-205.95-69.07-230.25-74.78-23.61-103.9 26.06-82.62 94.13M555.16 545.85c-13.38-6.69-37.84 29.18-43.34 37.25-15.28 22.4-26.28 56.78-18.96 83.97 5.8 21.54 17.67 43.33 15.57 66.37-6.5 71.55-137.85 141.19-48.75 213.31 10.75 8.72 24.21 13.08 37.24 16.93a157.63 157.63 0 0 0 52.15 6.1c68.77-4.05 114.7-57 173.36-85.33 44.77-21.61 86.15-43 121.22-79.9 44.02-46.34 99.5-118 75.17-184.88-7.87-21.66-24.07-59.74-50.11-64.34-44.58-7.87-67.82 44.93-118.51 41.31-23.43-1.67-45.71-23.36-65.02-34.54-51.07-29.56-162.53-45.32-173.36 35.9M809.11-101.56h-2.03"/></g></svg>